<svg width="563" height="318" viewBox="0 0 563 318" fill="none" xmlns="http://www.w3.org/2000/svg">
<path d="M562.199 206.069H451.239V317.029H562.199V206.069Z" fill="#F2C600"/>
<path d="M317.029 12.1295V88.9795C317.029 95.4095 312.009 100.749 305.589 101.079C252.129 103.849 202.249 125.989 164.119 164.119C125.989 202.249 103.849 252.13 101.079 305.59C100.749 312.01 95.4088 317.03 88.9788 317.03H12.1388C5.27881 317.03 -0.251192 311.339 0.00880762 304.479C1.48881 266.099 9.78881 228.829 24.7188 193.519C40.6988 155.739 63.5688 121.809 92.6888 92.6895C121.809 63.5695 155.739 40.6995 193.519 24.7195C228.829 9.77948 266.099 1.48948 304.479 0.00948374C311.339 -0.260516 317.029 5.26948 317.029 12.1395V12.1295Z" fill="#247AE9"/>
<path d="M562.199 12.1295V88.9795C562.199 95.4095 557.179 100.749 550.759 101.079C497.299 103.849 447.419 125.989 409.289 164.119C371.159 202.249 349.019 252.13 346.249 305.59C345.919 312.01 340.579 317.03 334.149 317.03H257.299C250.439 317.03 244.909 311.339 245.169 304.479C246.649 266.099 254.949 228.829 269.879 193.519C285.859 155.739 308.729 121.809 337.849 92.6895C366.969 63.5695 400.899 40.6995 438.679 24.7195C473.989 9.77948 511.259 1.48948 549.639 0.00948374C556.499 -0.260516 562.189 5.26948 562.189 12.1395L562.199 12.1295Z" fill="#247AE9"/>
</svg>
