<?xml version="1.0" standalone="no"?>
<!DOCTYPE svg PUBLIC "-//W3C//DTD SVG 20010904//EN"
 "http://www.w3.org/TR/2001/REC-SVG-20010904/DTD/svg10.dtd">
<svg version="1.0" xmlns="http://www.w3.org/2000/svg"
 width="416.000000pt" height="146.000000pt" viewBox="0 0 416.000000 146.000000"
 preserveAspectRatio="xMidYMid meet">
<g transform="translate(0.000000,146.000000) scale(0.100000,-0.100000)"
fill="#3be87d" stroke="none">
<path d="M2516 1330 c-4 -30 -8 -86 -9 -125 -2 -64 0 -70 18 -70 19 0 20 6 17
83 -2 45 -7 101 -11 125 l-8 42 -7 -55z"/>
<path d="M2240 1267 c0 -2 10 -15 21 -28 12 -13 46 -54 76 -91 29 -38 60 -68
67 -68 11 0 26 20 26 35 0 6 -178 155 -184 155 -3 0 -6 -2 -6 -3z"/>
<path d="M2708 1193 c-49 -41 -88 -78 -88 -82 0 -5 7 -15 16 -22 15 -12 21 -9
51 26 55 64 116 145 112 149 -2 2 -43 -30 -91 -71z"/>
<path d="M90 645 l0 -445 358 -2 c196 -2 358 -2 360 -1 2 1 -14 19 -36 41 -22
22 -46 56 -53 76 l-13 36 -219 2 -218 3 1 368 1 367 -91 0 -90 0 0 -445z m140
62 l5 -349 24 -19 c21 -17 41 -19 205 -19 192 0 226 -4 226 -26 0 -8 4 -14 9
-14 5 0 11 -11 14 -25 l4 -26 -293 1 -294 2 -2 176 c-4 328 3 636 16 645 6 4
27 6 46 5 l35 -3 5 -348z"/>
<path d="M2483 1068 c-29 -14 -55 -71 -47 -102 21 -86 143 -91 175 -7 15 39
-7 90 -47 107 -39 16 -51 17 -81 2z m86 -54 c16 -21 18 -30 10 -40 -6 -8 -8
-14 -3 -14 5 0 0 -6 -11 -14 -11 -7 -30 -12 -42 -12 -25 2 -55 25 -48 36 3 5
0 10 -6 12 -6 2 -2 15 11 31 27 35 62 35 89 1z"/>
<path d="M2207 999 c-38 -4 -71 -9 -73 -12 -2 -2 48 -9 112 -16 120 -13 143
-9 131 23 -7 18 -52 19 -170 5z"/>
<path d="M2674 996 c-13 -34 9 -38 132 -25 134 14 126 22 -31 34 -84 7 -95 5
-101 -9z"/>
<path d="M1532 860 c-149 -31 -258 -162 -297 -354 -26 -129 -71 -172 -177
-164 -47 3 -64 10 -88 33 -17 16 -35 45 -40 64 -5 20 -10 122 -10 226 l0 190
-86 -1 -86 -1 1 -209 c1 -242 11 -288 73 -358 69 -79 184 -115 306 -95 167 26
253 124 273 310 12 122 35 171 95 200 72 34 143 14 184 -54 18 -29 20 -51 20
-239 l0 -208 90 0 90 0 0 201 c0 222 6 251 62 291 72 50 166 27 206 -52 21
-41 22 -57 22 -242 l0 -198 85 0 85 0 0 213 c0 237 -8 283 -60 355 -18 25 -51
53 -82 69 -45 23 -66 27 -133 27 -66 0 -90 -4 -137 -26 -32 -15 -68 -38 -81
-52 l-24 -26 -26 30 c-56 62 -165 91 -265 70z m184 -50 c21 -12 44 -29 51 -39
7 -9 13 -12 13 -7 0 5 9 1 20 -9 11 -10 20 -15 20 -10 0 4 8 1 18 -6 9 -7 14
-10 10 -5 -4 4 5 18 20 31 88 73 228 91 310 39 12 -8 22 -12 22 -9 0 4 16 -9
35 -27 61 -58 75 -118 75 -330 0 -101 -4 -189 -9 -196 -10 -16 -81 -13 -93 3
-4 6 -8 90 -8 187 0 162 -2 181 -22 222 -12 25 -25 43 -30 40 -4 -3 -8 0 -8 6
0 6 -21 20 -47 31 -45 19 -56 20 -140 7 -7 -1 -29 -19 -49 -40 -54 -58 -65
-110 -60 -278 6 -177 2 -190 -59 -190 -25 0 -44 3 -44 8 1 4 0 12 -1 17 -2 6
-4 82 -5 170 -2 181 -11 225 -55 274 -34 36 -57 44 -132 44 -53 0 -127 -40
-135 -74 -3 -10 -9 -19 -13 -19 -10 0 -25 -75 -35 -165 -14 -126 -68 -199
-179 -242 -77 -29 -151 -33 -215 -11 -20 6 -42 12 -48 12 -21 1 -93 77 -115
121 -18 35 -21 64 -25 242 l-5 202 25 6 c45 12 70 2 79 -30 5 -16 7 -91 6
-165 -1 -74 2 -146 6 -160 10 -35 29 -73 44 -88 6 -7 12 -17 12 -21 0 -16 95
-48 135 -46 22 1 54 9 70 17 46 25 94 84 100 126 19 125 79 252 149 314 78 69
232 92 312 48z"/>
<path d="M3005 857 c-60 -20 -102 -44 -119 -69 -17 -24 -19 -21 -20 31 l-1 34
-78 1 -77 1 0 -327 0 -328 84 0 85 0 3 203 c4 234 10 255 88 295 82 42 165 17
201 -61 16 -37 19 -67 19 -239 l0 -198 85 0 85 0 0 218 c0 248 -8 293 -65 359
-19 22 -55 50 -81 62 -57 27 -155 35 -209 18z m177 -41 c19 -8 40 -22 48 -30
7 -9 18 -16 24 -16 21 0 54 -66 65 -135 8 -42 11 -137 9 -235 l-3 -164 -38 -4
c-65 -6 -67 0 -67 192 0 132 -4 184 -16 219 -9 26 -19 45 -24 42 -4 -3 -10 5
-13 16 -3 12 -10 18 -16 14 -6 -3 -11 -1 -11 4 0 6 -7 11 -15 11 -8 0 -23 5
-33 11 -22 14 -132 3 -132 -12 0 -6 -4 -7 -10 -4 -5 3 -10 1 -10 -5 0 -7 -7
-9 -16 -6 -8 3 -13 2 -10 -3 3 -5 -2 -15 -10 -22 -9 -8 -25 -33 -35 -57 -16
-37 -19 -70 -19 -211 0 -117 -4 -171 -12 -179 -16 -16 -70 -16 -86 0 -9 9 -12
85 -12 279 0 147 3 274 6 283 4 10 18 16 39 16 32 0 39 -5 74 -45 7 -9 20 -14
28 -11 8 3 21 6 29 6 9 0 12 5 9 10 -3 6 1 10 9 10 9 0 16 4 16 9 0 28 174 41
232 17z"/>
<path d="M1228 755 c-2 -55 -2 -102 -1 -104 1 -1 15 24 32 56 27 55 98 133
121 133 6 0 10 4 10 10 0 5 -34 8 -79 7 l-80 -2 -3 -100z"/>
<path d="M2523 816 l-82 -41 0 -287 -1 -288 85 0 85 0 0 330 c0 182 -1 329 -2
328 -2 0 -40 -20 -85 -42z m52 -302 c0 -168 -4 -272 -10 -276 -12 -9 -58 -10
-79 -2 -15 6 -16 35 -16 259 l1 252 35 17 c20 9 40 13 46 10 7 -5 8 -2 3 6 -5
8 -3 11 6 8 12 -4 14 -53 14 -274z"/>
<path d="M3506 794 l1 -65 169 -2 c119 -2 176 -6 192 -15 21 -12 52 -66 52
-90 0 -6 -71 -12 -157 -14 -138 -4 -165 -7 -212 -28 -77 -34 -111 -89 -111
-179 0 -136 91 -212 255 -213 102 -1 155 14 200 56 19 18 35 31 36 27 1 -3 0
-21 -1 -39 l-2 -32 81 0 81 0 0 224 c0 259 -9 305 -72 368 -57 57 -108 68
-327 68 l-186 0 1 -66z m406 20 c32 -9 55 -20 52 -25 -2 -5 7 -11 21 -15 13
-3 22 -10 19 -15 -3 -5 -1 -9 3 -9 5 0 17 -17 28 -37 16 -33 19 -68 22 -243 5
-237 3 -246 -61 -234 -25 4 -40 13 -43 25 -3 11 -8 19 -12 20 -3 0 -16 2 -28
5 -13 2 -23 -1 -23 -7 0 -5 -26 -22 -57 -36 -68 -30 -133 -32 -231 -6 -65 17
-119 61 -108 89 3 8 0 13 -7 11 -17 -3 -22 101 -5 132 21 42 92 100 105 87 4
-3 11 -2 17 3 12 10 111 20 228 22 83 2 90 4 106 34 13 26 -7 78 -44 111 -30
29 -9 25 -194 33 -154 6 -155 6 -158 30 -2 13 2 28 10 32 25 16 297 10 360 -7z"/>
<path d="M3637 501 c-32 -21 -51 -45 -61 -79 -9 -27 29 -112 50 -112 8 0 14
-4 14 -10 0 -5 7 -7 15 -4 8 4 15 2 15 -2 0 -5 31 -8 70 -6 137 5 223 74 206
165 -11 58 -33 67 -166 67 -95 0 -120 -3 -143 -19z m283 -54 c0 -52 -19 -81
-70 -107 -45 -23 -153 -27 -195 -8 -60 27 -66 106 -11 139 26 16 51 19 154 19
l122 0 0 -43z"/>
</g>
</svg>
